<svg width="42" height="42" viewBox="0 0 42 42" fill="none" xmlns="http://www.w3.org/2000/svg">
<rect width="42" height="42" rx="13" fill="#208DBB"/>
<path d="M32 9.5H10C9.20435 9.5 8.44129 9.81607 7.87868 10.3787C7.31607 10.9413 7 11.7044 7 12.5V29.5C7 30.2956 7.31607 31.0587 7.87868 31.6213C8.44129 32.1839 9.20435 32.5 10 32.5H32C32.7956 32.5 33.5587 32.1839 34.1213 31.6213C34.6839 31.0587 35 30.2956 35 29.5V12.5C35 11.7044 34.6839 10.9413 34.1213 10.3787C33.5587 9.81607 32.7956 9.5 32 9.5ZM33 12.5V20H27V11.5H32C32.2652 11.5 32.5196 11.6054 32.7071 11.7929C32.8946 11.9804 33 12.2348 33 12.5ZM9 29.5V12.5C9 12.2348 9.10536 11.9804 9.29289 11.7929C9.48043 11.6054 9.73478 11.5 10 11.5H25V21C25 21 25 21 25 21.06V30.5H10C9.73478 30.5 9.48043 30.3946 9.29289 30.2071C9.10536 30.0196 9 29.7652 9 29.5ZM32 30.5H27V22H33V29.5C33 29.7652 32.8946 30.0196 32.7071 30.2071C32.5196 30.3946 32.2652 30.5 32 30.5Z" fill="white"/>
<path d="M19.1103 20.13C19.5387 19.714 19.8331 19.1797 19.9561 18.5954C20.079 18.0111 20.0247 17.4034 19.8003 16.8501C19.5758 16.2968 19.1914 15.823 18.6962 15.4895C18.2009 15.156 17.6174 14.9778 17.0203 14.9778C16.4232 14.9778 15.8397 15.156 15.3445 15.4895C14.8492 15.823 14.4648 16.2968 14.2403 16.8501C14.0159 17.4034 13.9617 18.0111 14.0846 18.5954C14.2075 19.1797 14.502 19.714 14.9303 20.13C12.7203 20.75 11.0703 23.13 11.0703 25.97C11.0703 26.2352 11.1757 26.4895 11.3632 26.6771C11.5507 26.8646 11.8051 26.97 12.0703 26.97C12.3355 26.97 12.5899 26.8646 12.7774 26.6771C12.965 26.4895 13.0703 26.2352 13.0703 25.97C13.0703 23.76 14.4203 21.97 16.0703 21.97H18.0703C19.7203 21.97 21.0703 23.76 21.0703 25.97C21.0703 26.2352 21.1757 26.4895 21.3632 26.6771C21.5507 26.8646 21.8051 26.97 22.0703 26.97C22.3355 26.97 22.5899 26.8646 22.7774 26.6771C22.965 26.4895 23.0703 26.2352 23.0703 25.97C23.0703 23.12 21.3703 20.71 19.1103 20.13ZM17.0003 17C17.1981 17 17.3914 17.0586 17.5559 17.1685C17.7203 17.2784 17.8485 17.4346 17.9242 17.6173C17.9999 17.8 18.0197 18.0011 17.9811 18.1951C17.9425 18.389 17.8473 18.5672 17.7074 18.7071C17.5676 18.8469 17.3894 18.9422 17.1954 18.9808C17.0014 19.0193 16.8004 18.9995 16.6176 18.9238C16.4349 18.8482 16.2787 18.72 16.1688 18.5555C16.059 18.3911 16.0003 18.1977 16.0003 18C16.0003 17.7348 16.1057 17.4804 16.2932 17.2929C16.4807 17.1053 16.7351 17 17.0003 17Z" fill="white"/>
</svg>
