<svg width="32" height="32" viewBox="0 0 32 32" fill="none" xmlns="http://www.w3.org/2000/svg">
<path d="M24 15H30V7.5C30 6.70435 29.6839 5.94129 29.1213 5.37868C28.5587 4.81607 27.7956 4.5 27 4.5H24V15Z" fill="#304046"/>
<path d="M12 14C12.5523 14 13 13.5523 13 13C13 12.4477 12.5523 12 12 12C11.4477 12 11 12.4477 11 13C11 13.5523 11.4477 14 12 14Z" fill="#304046"/>
<path d="M22 17V4.5H5C4.20435 4.5 3.44129 4.81607 2.87868 5.37868C2.31607 5.94129 2 6.70435 2 7.5V24.5C2 25.2956 2.31607 26.0587 2.87868 26.6213C3.44129 27.1839 4.20435 27.5 5 27.5H22V17ZM17 22C16.7348 22 16.4804 21.8946 16.2929 21.7071C16.1054 21.5196 16 21.2652 16 21C16 18.79 14.65 17 13 17H11C9.35 17 8 18.79 8 21C8 21.2652 7.89464 21.5196 7.70711 21.7071C7.51957 21.8946 7.26522 22 7 22C6.73478 22 6.48043 21.8946 6.29289 21.7071C6.10536 21.5196 6 21.2652 6 21C6 18.14 7.68 15.75 9.91 15.15C9.48165 14.734 9.18717 14.1997 9.06426 13.6154C8.94134 13.0311 8.99557 12.4234 9.22002 11.8701C9.44447 11.3168 9.82892 10.8431 10.3242 10.5095C10.8194 10.176 11.4029 9.99782 12 9.99782C12.5971 9.99782 13.1806 10.176 13.6758 10.5095C14.1711 10.8431 14.5555 11.3168 14.78 11.8701C15.0044 12.4234 15.0587 13.0311 14.9357 13.6154C14.8128 14.1997 14.5183 14.734 14.09 15.15C16.32 15.75 18 18.15 18 21C18 21.2652 17.8946 21.5196 17.7071 21.7071C17.5196 21.8946 17.2652 22 17 22Z" fill="#304046"/>
<path d="M24 17V27.5H27C27.7956 27.5 28.5587 27.1839 29.1213 26.6213C29.6839 26.0587 30 25.2956 30 24.5V17H24Z" fill="#304046"/>
</svg>
