<svg width="25" height="27" viewBox="0 0 25 27" fill="none" xmlns="http://www.w3.org/2000/svg">
<rect width="25" height="25" rx="12.5" fill="#FC1E01" fill-opacity="0.9"/>
<path d="M11.8467 5L13.3272 5.00375C13.9107 5.07425 14.4222 5.34875 14.8437 5.81225C15.188 6.19025 15.3687 6.62975 15.3792 7.10825H19.4855C19.6226 7.10904 19.7538 7.16423 19.8503 7.26168C19.9467 7.35913 20.0006 7.49088 20 7.628C20.0003 7.69586 19.9872 7.76312 19.9615 7.82592C19.9358 7.88873 19.898 7.94586 19.8502 7.99406C19.8025 8.04225 19.7457 8.08056 19.6831 8.1068C19.6205 8.13305 19.5534 8.14671 19.4855 8.147L18.1085 8.14625V16.8665C18.1085 18.7737 17.3967 20 15.8277 20H9.06425C7.49525 20 6.79475 18.7805 6.79475 16.8665V8.14625H5.5145C5.37771 8.14565 5.24674 8.09085 5.15029 7.99384C5.05385 7.89683 4.9998 7.76554 5 7.62875C5 7.3415 5.23025 7.10975 5.5145 7.10975H9.617C9.6275 6.72425 9.77075 6.3335 10.0325 5.94725C10.4225 5.37125 11.0315 5.0555 11.8467 5ZM17.0795 8.14625H7.823V16.8665C7.823 18.2825 8.213 18.962 9.06425 18.962H15.8277C16.682 18.962 17.0802 18.2765 17.0802 16.8665L17.0795 8.14625ZM10.037 9.755C10.3205 9.755 10.5507 9.9875 10.5507 10.274V16.3115C10.551 16.3794 10.538 16.4466 10.5123 16.5094C10.4866 16.5722 10.4488 16.6294 10.401 16.6776C10.3532 16.7258 10.2964 16.7641 10.2338 16.7903C10.1712 16.8165 10.1041 16.8302 10.0362 16.8305C9.89933 16.8297 9.76832 16.7746 9.67199 16.6773C9.57567 16.58 9.5219 16.4484 9.5225 16.3115V10.274C9.5225 9.9875 9.7535 9.755 10.037 9.755ZM12.0815 9.755C12.3665 9.755 12.596 9.9875 12.596 10.274V16.3115C12.5963 16.3794 12.5832 16.4466 12.5575 16.5094C12.5318 16.5722 12.494 16.6294 12.4462 16.6776C12.3985 16.7258 12.3417 16.7641 12.2791 16.7903C12.2165 16.8165 12.1494 16.8302 12.0815 16.8305C11.9446 16.8297 11.8136 16.7746 11.7172 16.6773C11.6209 16.58 11.5671 16.4484 11.5677 16.3115V10.274C11.5677 9.9875 11.798 9.755 12.0815 9.755ZM14.1275 9.755C14.411 9.755 14.6412 9.9875 14.6412 10.274V16.3115C14.6418 16.4484 14.5881 16.58 14.4918 16.6773C14.3954 16.7746 14.2644 16.8297 14.1275 16.8305C14.0596 16.8302 13.9925 16.8165 13.9299 16.7903C13.8673 16.7641 13.8105 16.7258 13.7628 16.6776C13.715 16.6294 13.6772 16.5722 13.6515 16.5094C13.6258 16.4466 13.6127 16.3794 13.613 16.3115V10.274C13.6126 10.137 13.6665 10.0054 13.763 9.90816C13.8594 9.81087 13.9905 9.75579 14.1275 9.755ZM11.882 6.0365C11.4005 6.07025 11.0832 6.2345 10.8815 6.533C10.733 6.75125 10.6587 6.94025 10.6467 7.109L14.3502 7.10825C14.3397 6.89 14.2535 6.698 14.0862 6.51425C13.8267 6.22925 13.5387 6.07475 13.2665 6.038L11.882 6.0365Z" fill="white"/>
</svg>
