<svg width="25" height="25" viewBox="0 0 25 25" fill="none" xmlns="http://www.w3.org/2000/svg">
<rect width="25" height="25" rx="12.5" fill="#208DBB"/>
<path d="M16.7268 14.3857L17.5601 13.493C17.6904 13.3535 17.9169 13.4512 17.9169 13.652V17.7083C17.9169 18.4476 17.357 19.0474 16.6669 19.0474H7.50003C6.80991 19.0474 6.25 18.4476 6.25 17.7083V7.88835C6.25 7.14906 6.80991 6.54926 7.50003 6.54926H14.6226C14.8075 6.54926 14.9012 6.78918 14.771 6.93146L13.9377 7.82419C13.8986 7.86604 13.8465 7.88835 13.7892 7.88835H7.50003V17.7083H16.6669V14.542C16.6669 14.4834 16.6877 14.4276 16.7268 14.3857ZM20.805 8.75597L13.9663 16.0819L11.6121 16.3609C10.9298 16.4418 10.349 15.8252 10.4246 15.0888L10.685 12.5668L17.5237 5.24086C18.12 4.602 19.0836 4.602 19.6774 5.24086L20.8024 6.44604C21.3988 7.0849 21.3988 8.1199 20.805 8.75597ZM18.232 9.61801L16.719 7.99715L11.8803 13.1833L11.6902 15.0051L13.3908 14.8014L18.232 9.61801ZM19.9196 7.39456L18.7945 6.18938C18.6878 6.075 18.5133 6.075 18.4091 6.18938L17.6044 7.05142L19.1175 8.67228L19.9222 7.81024C20.0263 7.69307 20.0263 7.50894 19.9196 7.39456Z" fill="white"/>
</svg>
