<svg width="42" height="42" viewBox="0 0 42 42" fill="none" xmlns="http://www.w3.org/2000/svg">
<rect width="42" height="42" rx="13" fill="#DFDFDF"/>
<path d="M19.9548 9L22.3236 9.006C23.2572 9.1188 24.0756 9.558 24.75 10.2996C25.3008 10.9044 25.59 11.6076 25.6068 12.3732H32.1768C32.3962 12.3745 32.6061 12.4628 32.7604 12.6187C32.9148 12.7746 33.0009 12.9854 33 13.2048C33.0005 13.3134 32.9795 13.421 32.9384 13.5215C32.8973 13.622 32.8368 13.7134 32.7604 13.7905C32.6839 13.8676 32.5931 13.9289 32.4929 13.9709C32.3928 14.0129 32.2854 14.0347 32.1768 14.0352L29.9736 14.034V27.9864C29.9736 31.038 28.8348 33 26.3244 33H15.5028C12.9924 33 11.8716 31.0488 11.8716 27.9864V14.034H9.8232C9.60434 14.033 9.39478 13.9454 9.24047 13.7901C9.08616 13.6349 8.99968 13.4249 9 13.206C9 12.7464 9.3684 12.3756 9.8232 12.3756H16.3872C16.404 11.7588 16.6332 11.1336 17.052 10.5156C17.676 9.594 18.6504 9.0888 19.9548 9ZM28.3272 14.034H13.5168V27.9864C13.5168 30.252 14.1408 31.3392 15.5028 31.3392H26.3244C27.6912 31.3392 28.3284 30.2424 28.3284 27.9864L28.3272 14.034ZM17.0592 16.608C17.5128 16.608 17.8812 16.98 17.8812 17.4384V27.0984C17.8817 27.207 17.8608 27.3146 17.8196 27.4151C17.7785 27.5156 17.718 27.607 17.6416 27.6841C17.5651 27.7612 17.4743 27.8225 17.3741 27.8645C17.274 27.9065 17.1666 27.9283 17.058 27.9288C16.8389 27.9275 16.6293 27.8394 16.4752 27.6837C16.3211 27.528 16.235 27.3175 16.236 27.0984V17.4384C16.236 16.98 16.6056 16.608 17.0592 16.608ZM20.3304 16.608C20.7864 16.608 21.1536 16.98 21.1536 17.4384V27.0984C21.1541 27.207 21.1332 27.3146 21.092 27.4151C21.0509 27.5156 20.9904 27.607 20.914 27.6841C20.8375 27.7612 20.7467 27.8225 20.6465 27.8645C20.5464 27.9065 20.439 27.9283 20.3304 27.9288C20.1113 27.9275 19.9017 27.8394 19.7476 27.6837C19.5935 27.528 19.5074 27.3175 19.5084 27.0984V17.4384C19.5084 16.98 19.8768 16.608 20.3304 16.608ZM23.604 16.608C24.0576 16.608 24.426 16.98 24.426 17.4384V27.0984C24.427 27.3175 24.3409 27.528 24.1868 27.6837C24.0327 27.8394 23.8231 27.9275 23.604 27.9288C23.4954 27.9283 23.388 27.9065 23.2879 27.8645C23.1877 27.8225 23.0969 27.7612 23.0204 27.6841C22.944 27.607 22.8835 27.5156 22.8424 27.4151C22.8012 27.3146 22.7803 27.207 22.7808 27.0984V17.4384C22.7802 17.2192 22.8665 17.0087 23.0208 16.8531C23.1751 16.6974 23.3848 16.6093 23.604 16.608ZM20.0112 10.6584C19.2408 10.7124 18.7332 10.9752 18.4104 11.4528C18.1728 11.802 18.054 12.1044 18.0348 12.3744L23.9604 12.3732C23.9436 12.024 23.8056 11.7168 23.538 11.4228C23.1228 10.9668 22.662 10.7196 22.2264 10.6608L20.0112 10.6584Z" fill="white"/>
</svg>
