<svg width="42" height="42" viewBox="0 0 42 42" fill="none" xmlns="http://www.w3.org/2000/svg">
<rect width="42" height="42" rx="13" fill="#DFDFDF" fill-opacity="0.9"/>
<g clip-path="url(#clip0_1_2)">
<path d="M31.5998 10.164C30.7823 9.381 29.8815 8.98425 28.9193 8.98425C27.4148 8.98425 26.3167 9.95625 26.0167 10.254C25.5937 10.6725 11.1773 25.095 11.1773 25.095C11.0828 25.1895 11.0145 25.308 10.9793 25.437C10.6545 26.6385 9.0255 31.9695 9.009 32.0235C8.925 32.2965 9 32.5942 9.201 32.7952C9.34575 32.9392 9.5385 33.0165 9.73575 33.0165C9.81375 33.0165 9.89175 33.0045 9.96825 32.9797C10.023 32.9617 15.5258 31.1835 16.4318 30.9127C16.551 30.8767 16.6605 30.8122 16.749 30.7245C17.3213 30.159 30.7672 16.8622 31.6597 15.9405C32.583 14.9895 33.042 13.998 33.024 12.9967C33.0053 12.0075 32.526 11.055 31.5983 10.1648L31.5998 10.164ZM25.7775 12.6525C26.1593 12.7447 27.0608 13.0478 27.981 13.9763C28.911 14.9145 29.1622 15.987 29.2095 16.2315C26.2605 19.1655 19.4723 25.8818 16.7963 28.5285C16.5495 27.9533 16.1498 27.2595 15.507 26.6122C14.7225 25.8217 13.9238 25.3755 13.308 25.1243C15.9563 22.4753 22.8728 15.5565 25.7768 12.6532L25.7775 12.6525ZM12.2903 26.3895C12.7028 26.499 13.5585 26.817 14.4308 27.696C15.1028 28.374 15.42 29.121 15.5625 29.577C14.52 29.9123 12.237 30.6997 10.7873 31.1677C11.217 29.7532 11.943 27.5513 12.2903 26.3895ZM30.5723 14.868C30.5415 14.8995 30.4905 14.9505 30.4298 15.012C30.1928 14.4015 29.7773 13.617 29.0565 12.891C28.3208 12.1493 27.5745 11.712 26.9768 11.4532C27.0278 11.403 27.0668 11.3633 27.0825 11.3483C27.168 11.2635 27.9472 10.5188 28.9177 10.5188C29.4765 10.5188 30.0255 10.7738 30.549 11.2763C31.17 11.8725 31.491 12.4605 31.5015 13.0245C31.512 13.6005 31.1985 14.2207 30.5715 14.868H30.5723Z" fill="white"/>
</g>
<defs>
<clipPath id="clip0_1_2">
<rect width="24" height="24" fill="white" transform="translate(9 9)"/>
</clipPath>
</defs>
</svg>
