<svg width="42" height="42" viewBox="0 0 42 42" fill="none" xmlns="http://www.w3.org/2000/svg">
<rect width="42" height="42" rx="13" fill="#FFE600" fill-opacity="0.9"/>
<g clip-path="url(#clip0_894_11124)">
<path d="M31.5993 10.1641C30.7818 9.38113 29.881 8.98438 28.9188 8.98438C27.4143 8.98438 26.3163 9.95638 26.0163 10.2541C25.5933 10.6726 11.1768 25.0951 11.1768 25.0951C11.0823 25.1896 11.014 25.3081 10.9788 25.4371C10.654 26.6386 9.02503 31.9696 9.00853 32.0236C8.92453 32.2966 8.99953 32.5944 9.20053 32.7954C9.34528 32.9394 9.53803 33.0166 9.73528 33.0166C9.81328 33.0166 9.89128 33.0046 9.96778 32.9799C10.0225 32.9619 15.5253 31.1836 16.4313 30.9129C16.5505 30.8769 16.66 30.8124 16.7485 30.7246C17.3208 30.1591 30.7668 16.8624 31.6593 15.9406C32.5825 14.9896 33.0415 13.9981 33.0235 12.9969C33.0048 12.0076 32.5255 11.0551 31.5978 10.1649L31.5993 10.1641ZM25.777 12.6526C26.1588 12.7449 27.0603 13.0479 27.9805 13.9764C28.9105 14.9146 29.1618 15.9871 29.209 16.2316C26.26 19.1656 19.4718 25.8819 16.7958 28.5286C16.549 27.9534 16.1493 27.2596 15.5065 26.6124C14.722 25.8219 13.9233 25.3756 13.3075 25.1244C15.9558 22.4754 22.8723 15.5566 25.7763 12.6534L25.777 12.6526ZM12.2898 26.3896C12.7023 26.4991 13.558 26.8171 14.4303 27.6961C15.1023 28.3741 15.4195 29.1211 15.562 29.5771C14.5195 29.9124 12.2365 30.6999 10.7868 31.1679C11.2165 29.7534 11.9425 27.5514 12.2898 26.3896ZM30.5718 14.8681C30.541 14.8996 30.49 14.9506 30.4293 15.0121C30.1923 14.4016 29.7768 13.6171 29.056 12.8911C28.3203 12.1494 27.574 11.7121 26.9763 11.4534C27.0273 11.4031 27.0663 11.3634 27.082 11.3484C27.1675 11.2636 27.9468 10.5189 28.9173 10.5189C29.476 10.5189 30.025 10.7739 30.5485 11.2764C31.1695 11.8726 31.4905 12.4606 31.501 13.0246C31.5115 13.6006 31.198 14.2209 30.571 14.8681H30.5718Z" fill="white"/>
</g>
<defs>
<clipPath id="clip0_894_11124">
<rect width="24" height="24" fill="white" transform="translate(9 9)"/>
</clipPath>
</defs>
</svg>
