<svg width="26" height="18" viewBox="0 0 26 18" fill="none" xmlns="http://www.w3.org/2000/svg">
<g clip-path="url(#clip0_2851_12924)">
<path d="M2.20156 7.54961C1.45598 7.54961 0.851562 8.15405 0.851562 8.89961C0.851562 9.64517 1.45598 10.2496 2.20156 10.2496V7.54961ZM23.8016 10.2496C24.5471 10.2496 25.1516 9.64517 25.1516 8.89961C25.1516 8.15405 24.5471 7.54961 23.8016 7.54961V10.2496ZM2.20156 14.7496C1.45598 14.7496 0.851562 15.354 0.851562 16.0996C0.851562 16.8452 1.45598 17.4496 2.20156 17.4496V14.7496ZM23.8016 17.4496C24.5471 17.4496 25.1516 16.8452 25.1516 16.0996C25.1516 15.354 24.5471 14.7496 23.8016 14.7496V17.4496ZM2.20156 0.349609C1.45598 0.349609 0.851562 0.954031 0.851562 1.69961C0.851562 2.44519 1.45598 3.04961 2.20156 3.04961V0.349609ZM23.8016 3.04961C24.5471 3.04961 25.1516 2.44519 25.1516 1.69961C25.1516 0.954031 24.5471 0.349609 23.8016 0.349609V3.04961ZM2.20156 10.2496H23.8016V7.54961H2.20156V10.2496ZM2.20156 17.4496H23.8016V14.7496H2.20156V17.4496ZM2.20156 3.04961H23.8016V0.349609H2.20156V3.04961Z" fill="white"/>
</g>
<defs>
<clipPath id="clip0_2851_12924">
<rect width="26" height="18" fill="white"/>
</clipPath>
</defs>
</svg>
