<svg width="22" height="23" viewBox="0 0 22 23" fill="none" xmlns="http://www.w3.org/2000/svg">
<path d="M6.41667 19.3984V17.5651H10.0833V14.7234C9.33472 14.5554 8.66617 14.2382 8.07767 13.7719C7.48917 13.3057 7.05772 12.7214 6.78333 12.0193C5.6375 11.8818 4.67867 11.3816 3.90683 10.5187C3.135 9.6558 2.74939 8.64349 2.75 7.48177V6.5651C2.75 6.06094 2.92967 5.62919 3.289 5.26985C3.64833 4.91052 4.07978 4.73116 4.58333 4.73177H6.41667V2.89844H15.5833V4.73177H17.4167C17.9208 4.73177 18.3526 4.91144 18.7119 5.27077C19.0713 5.6301 19.2506 6.06155 19.25 6.5651V7.48177C19.25 8.64288 18.8641 9.65519 18.0922 10.5187C17.3204 11.3822 16.3619 11.8824 15.2167 12.0193C14.9417 12.722 14.5099 13.3066 13.9214 13.7729C13.3329 14.2391 12.6647 14.556 11.9167 14.7234V17.5651H15.5833V19.3984H6.41667ZM6.41667 10.0484V6.5651H4.58333V7.48177C4.58333 8.06233 4.75139 8.58574 5.0875 9.05202C5.42361 9.5183 5.86667 9.85044 6.41667 10.0484ZM15.5833 10.0484C16.1333 9.84983 16.5764 9.51738 16.9125 9.0511C17.2486 8.58483 17.4167 8.06172 17.4167 7.48177V6.5651H15.5833V10.0484Z" fill="#47ACB3"/>
</svg>
