<svg width="800" height="800" viewBox="0 0 800 800" fill="none" xmlns="http://www.w3.org/2000/svg">
<path d="M566.666 333.334H633.333C699.999 333.334 733.333 300 733.333 233.334V166.667C733.333 100 699.999 66.667 633.333 66.667H566.666C499.999 66.667 466.666 100 466.666 166.667V233.334C466.666 300 499.999 333.334 566.666 333.334Z" stroke="white" stroke-width="50" stroke-miterlimit="10" stroke-linecap="round" stroke-linejoin="round"/>
<path d="M166.666 733.334H233.333C299.999 733.334 333.333 700 333.333 633.334V566.667C333.333 500 299.999 466.667 233.333 466.667H166.666C99.9993 466.667 66.666 500 66.666 566.667V633.334C66.666 700 99.9993 733.334 166.666 733.334Z" stroke="white" stroke-width="50" stroke-miterlimit="10" stroke-linecap="round" stroke-linejoin="round"/>
<path d="M199.999 333.334C273.637 333.334 333.333 273.638 333.333 200C333.333 126.362 273.637 66.667 199.999 66.667C126.361 66.667 66.666 126.362 66.666 200C66.666 273.638 126.361 333.334 199.999 333.334Z" stroke="white" stroke-width="50" stroke-miterlimit="10" stroke-linecap="round" stroke-linejoin="round"/>
<path d="M599.999 733.334C673.636 733.334 733.333 673.637 733.333 600C733.333 526.364 673.636 466.667 599.999 466.667C526.363 466.667 466.666 526.364 466.666 600C466.666 673.637 526.363 733.334 599.999 733.334Z" stroke="white" stroke-width="50" stroke-miterlimit="10" stroke-linecap="round" stroke-linejoin="round"/>
</svg>
