<svg width="24" height="22" viewBox="0 0 24 22" fill="none" xmlns="http://www.w3.org/2000/svg">
<path d="M3.81716 4.48355C4.90494 4.48355 5.78623 3.6015 5.78623 2.51442C5.78623 1.42622 4.90494 0.544922 3.81716 0.544922C2.72891 0.544922 1.84766 1.42622 1.84766 2.51442C1.84766 3.6015 2.72891 4.48355 3.81716 4.48355Z" fill="white"/>
<path d="M10.5078 10.4862C10.5078 10.4461 10.5011 10.4078 10.496 10.3691L13.4373 8.23438C13.6221 8.09998 13.6637 7.84011 13.5293 7.65491C13.4513 7.5478 13.3258 7.48372 13.1932 7.48372C13.1053 7.48372 13.0214 7.51133 12.9499 7.56289L10.0027 9.70208C9.89297 9.65202 9.77259 9.6222 9.64411 9.6222H8.04202L7.65323 7.40867C7.43972 6.29253 6.99173 5.41602 6.03755 5.41602H1.99223C1.03809 5.41602 0 6.45411 0 7.40867V14.0276C0 14.5047 0.386531 14.8916 0.863625 14.8916C1.09852 14.8916 0.863625 14.8916 1.46662 14.8916L1.79498 20.5364C1.79498 21.0441 2.20692 21.4557 2.71458 21.4557C3.0952 21.4557 4.04573 21.4557 4.55339 21.4557C5.06105 21.4557 5.47261 21.0441 5.47261 20.5364L5.90405 9.35534H5.92575L6.17278 10.4461C6.25453 10.9663 6.70214 11.3498 7.22859 11.3498H9.64425C10.1213 11.3498 10.5078 10.9633 10.5078 10.4862ZM3.18872 9.2592V6.11281H4.31962V9.2592L3.71883 9.96786L3.18872 9.2592Z" fill="white"/>
<path d="M8.92188 1.22656V8.41714H10.0528V2.35742H22.8694V13.1638H10.0528V11.8036H8.92188V14.2947H24.0003V1.22656H8.92188Z" fill="white"/>
<path d="M14.6161 17.2162C14.6161 16.3349 13.902 15.6211 13.021 15.6211C12.1397 15.6211 11.4256 16.3349 11.4256 17.2162C11.4256 18.0967 12.1397 18.8113 13.021 18.8113C13.9019 18.8113 14.6161 18.0967 14.6161 17.2162Z" fill="white"/>
<path d="M13.021 19.665C11.8839 19.665 10.9179 20.4112 10.5469 21.4556H15.4952C15.1242 20.4112 14.1582 19.665 13.021 19.665Z" fill="white"/>
<path d="M21.4952 17.2162C21.4952 16.3349 20.781 15.6211 19.9001 15.6211C19.0188 15.6211 18.3047 16.3349 18.3047 17.2162C18.3047 18.0967 19.0188 18.8113 19.9001 18.8113C20.781 18.8113 21.4952 18.0967 21.4952 17.2162Z" fill="white"/>
<path d="M19.9 19.665C18.7628 19.665 17.7969 20.4112 17.4258 21.4556H22.3741C22.0031 20.4112 21.0371 19.665 19.9 19.665Z" fill="white"/>
</svg>
