<svg width="24" height="24" viewBox="0 0 24 24" fill="none" xmlns="http://www.w3.org/2000/svg">
<g clip-path="url(#clip0_5812_2983)">
<path d="M3.81716 5.48355C4.90494 5.48355 5.78623 4.6015 5.78623 3.51442C5.78623 2.42622 4.90494 1.54492 3.81716 1.54492C2.72891 1.54492 1.84766 2.42622 1.84766 3.51442C1.84766 4.6015 2.72891 5.48355 3.81716 5.48355Z" fill="white"/>
<path d="M10.5078 11.4862C10.5078 11.4461 10.5011 11.4078 10.496 11.3691L13.4373 9.23438C13.6221 9.09998 13.6637 8.84011 13.5293 8.65491C13.4513 8.5478 13.3258 8.48372 13.1932 8.48372C13.1053 8.48372 13.0214 8.51133 12.9499 8.56289L10.0027 10.7021C9.89297 10.652 9.77259 10.6222 9.64411 10.6222H8.04202L7.65323 8.40867C7.43972 7.29253 6.99173 6.41602 6.03755 6.41602H1.99223C1.03809 6.41602 0 7.45411 0 8.40867V15.0276C0 15.5047 0.386531 15.8916 0.863625 15.8916C1.09852 15.8916 0.863625 15.8916 1.46662 15.8916L1.79498 21.5364C1.79498 22.0441 2.20692 22.4557 2.71458 22.4557C3.0952 22.4557 4.04573 22.4557 4.55339 22.4557C5.06105 22.4557 5.47261 22.0441 5.47261 21.5364L5.90405 10.3553H5.92575L6.17278 11.4461C6.25453 11.9663 6.70214 12.3498 7.22859 12.3498H9.64425C10.1213 12.3498 10.5078 11.9633 10.5078 11.4862ZM3.18872 10.2592V7.11281H4.31962V10.2592L3.71883 10.9679L3.18872 10.2592Z" fill="white"/>
<path d="M8.92188 2.22559V9.41616H10.0528V3.35645H22.8694V14.1628H10.0528V12.8026H8.92188V15.2937H24.0003V2.22559H8.92188Z" fill="white"/>
<path d="M14.6163 18.2162C14.6163 17.3349 13.9021 16.6211 13.0212 16.6211C12.1399 16.6211 11.4258 17.3349 11.4258 18.2162C11.4258 19.0967 12.1399 19.8113 13.0212 19.8113C13.9021 19.8113 14.6163 19.0967 14.6163 18.2162Z" fill="white"/>
<path d="M13.021 20.665C11.8839 20.665 10.9179 21.4112 10.5469 22.4556H15.4952C15.1242 21.4112 14.1582 20.665 13.021 20.665Z" fill="white"/>
<path d="M21.4952 18.2162C21.4952 17.3349 20.781 16.6211 19.9001 16.6211C19.0188 16.6211 18.3047 17.3349 18.3047 18.2162C18.3047 19.0967 19.0188 19.8113 19.9001 19.8113C20.781 19.8113 21.4952 19.0967 21.4952 18.2162Z" fill="white"/>
<path d="M19.9 20.665C18.7628 20.665 17.7969 21.4112 17.4258 22.4556H22.3741C22.0031 21.4112 21.0371 20.665 19.9 20.665Z" fill="white"/>
</g>
<defs>
<clipPath id="clip0_5812_2983">
<rect width="24" height="24" fill="white"/>
</clipPath>
</defs>
</svg>
