<svg width="24" height="24" viewBox="0 0 24 24" fill="none" xmlns="http://www.w3.org/2000/svg">
<path d="M12.459 1.6601C12.3259 1.55635 12.162 1.5 11.9932 1.5C11.8245 1.5 11.6606 1.55635 11.5275 1.6601L0.75 10.0639L1.68225 11.2429L3 10.2154V19.4996C3.00079 19.8972 3.15908 20.2783 3.44022 20.5594C3.72135 20.8405 4.10242 20.9988 4.5 20.9996H19.5C19.8976 20.9988 20.2787 20.8405 20.5598 20.5594C20.8409 20.2783 20.9992 19.8972 21 19.4996V10.2221L22.3177 11.2496L23.25 10.0706L12.459 1.6601ZM13.5 19.4996H10.5V13.4996H13.5V19.4996ZM15 19.4996V13.4996C14.9996 13.1019 14.8414 12.7206 14.5602 12.4394C14.279 12.1582 13.8977 12 13.5 11.9996H10.5C10.1023 12 9.721 12.1582 9.43978 12.4394C9.15856 12.7206 9.0004 13.1019 9 13.4996V19.4996H4.5V9.0461L12 3.2036L19.5 9.0536V19.4996H15Z" fill="white"/>
</svg>
