<svg width="24" height="24" viewBox="0 0 24 24" fill="none" xmlns="http://www.w3.org/2000/svg">
<path fill-rule="evenodd" clip-rule="evenodd" d="M4.8887 20.0651C3.95791 20.2255 3.00278 19.9829 2.26139 19.3978C1.52 18.8126 1.06217 17.9399 1.00205 16.9974V6.86773C0.958742 5.80478 1.60527 4.835 2.6031 4.46615C5.53386 3.39062 8.82422 4.21433 10.9025 6.54384V21C9.50934 19.8289 7.10217 19.7582 4.8887 20.0651Z" stroke="white" stroke-width="1.18447" stroke-linecap="round" stroke-linejoin="round"/>
<path fill-rule="evenodd" clip-rule="evenodd" d="M16.9152 20.0651C17.846 20.2255 18.8013 19.9829 19.5425 19.3978C20.2839 18.8126 20.7418 17.9399 20.8019 16.9974V6.86773C20.8453 5.80478 20.1988 4.835 19.2008 4.46615C16.2701 3.39062 12.9798 4.21433 10.9014 6.54384V21C12.2945 19.8289 14.7017 19.7582 16.9152 20.0651Z" stroke="white" stroke-width="1.18447" stroke-linecap="round" stroke-linejoin="round"/>
<path d="M7.36597 12.1596C7.95194 12.1596 8.42674 11.6847 8.42674 11.0989C8.42674 10.513 7.95194 10.0381 7.36597 10.0381V12.1596ZM4.53733 10.0381C3.95149 10.0381 3.47656 10.513 3.47656 11.0989C3.47656 11.6847 3.95149 12.1596 4.53733 12.1596V10.0381ZM7.36597 14.9883C7.95194 14.9883 8.42674 14.5134 8.42674 13.9276C8.42674 13.3417 7.95194 12.8668 7.36597 12.8668V14.9883ZM4.53733 12.8668C3.95149 12.8668 3.47656 13.3417 3.47656 13.9276C3.47656 14.5134 3.95149 14.9883 4.53733 14.9883V12.8668ZM17.2665 12.1596C17.8524 12.1596 18.3272 11.6847 18.3272 11.0989C18.3272 10.513 17.8524 10.0381 17.2665 10.0381V12.1596ZM14.4378 10.0381C13.8519 10.0381 13.377 10.513 13.377 11.0989C13.377 11.6847 13.8519 12.1596 14.4378 12.1596V10.0381ZM17.2665 14.9883C17.8524 14.9883 18.3272 14.5134 18.3272 13.9276C18.3272 13.3417 17.8524 12.8668 17.2665 12.8668V14.9883ZM14.4378 12.8668C13.8519 12.8668 13.377 13.3417 13.377 13.9276C13.377 14.5134 13.8519 14.9883 14.4378 14.9883V12.8668ZM7.36597 10.0381H4.53733V12.1596H7.36597V10.0381ZM7.36597 12.8668H4.53733V14.9883H7.36597V12.8668ZM17.2665 10.0381H14.4378V12.1596H17.2665V10.0381ZM17.2665 12.8668H14.4378V14.9883H17.2665V12.8668Z" fill="white"/>
</svg>
