<svg width="18" height="18" viewBox="0 0 18 18" fill="none" xmlns="http://www.w3.org/2000/svg">
<path fill-rule="evenodd" clip-rule="evenodd" d="M16.0427 3.38548C16.8137 3.59312 17.4216 4.20094 17.6291 4.97204C18.0148 6.38048 17.9999 9.31629 17.9999 9.31629C17.9999 9.31629 17.9999 12.2371 17.6293 13.6457C17.4216 14.4167 16.8138 15.0246 16.0427 15.2321C14.6341 15.6029 8.99996 15.6029 8.99996 15.6029C8.99996 15.6029 3.38048 15.6029 1.95721 15.2174C1.18611 15.0098 0.57829 14.4018 0.37065 13.6309C0 12.2371 0 9.30146 0 9.30146C0 9.30146 0 6.38048 0.37065 4.97204C0.578153 4.20108 1.20094 3.57829 1.95707 3.37079C3.36565 3 8.99983 3 8.99983 3C8.99983 3 14.6341 3 16.0427 3.38548ZM11.8923 9.30203L7.20703 12.0005V6.60352L11.8923 9.30203Z" fill="white"/>
</svg>
