<svg width="58" height="58" viewBox="0 0 58 58" fill="none" xmlns="http://www.w3.org/2000/svg">
<rect width="58" height="58" rx="29" fill="white"/>
<path d="M29.709 19.1601C29.5759 19.0563 29.412 19 29.2433 19C29.0745 19 28.9106 19.0563 28.7775 19.1601L18 27.5639L18.9323 28.7429L20.25 27.7154V36.9996C20.2508 37.3972 20.4091 37.7783 20.6902 38.0594C20.9713 38.3405 21.3524 38.4988 21.75 38.4996H36.75C37.1476 38.4988 37.5287 38.3405 37.8098 38.0594C38.0909 37.7783 38.2492 37.3972 38.25 36.9996V27.7221L39.5677 28.7496L40.5 27.5706L29.709 19.1601ZM30.75 36.9996H27.75V30.9996H30.75V36.9996ZM32.25 36.9996V30.9996C32.2496 30.6019 32.0914 30.2206 31.8102 29.9394C31.529 29.6582 31.1477 29.5 30.75 29.4996H27.75C27.3523 29.5 26.971 29.6582 26.6898 29.9394C26.4086 30.2206 26.2504 30.6019 26.25 30.9996V36.9996H21.75V26.5461L29.25 20.7036L36.75 26.5536V36.9996H32.25Z" fill="#8C94A3"/>
</svg>
