<svg width="86" height="77" viewBox="0 0 86 77" fill="none" xmlns="http://www.w3.org/2000/svg">
<rect x="14" y="10" width="58" height="58" rx="29" fill="white"/>
<path d="M43.709 29.1601C43.5759 29.0563 43.412 29 43.2433 29C43.0745 29 42.9106 29.0563 42.7775 29.1601L32 37.5639L32.9323 38.7429L34.25 37.7154V46.9996C34.2508 47.3972 34.4091 47.7783 34.6902 48.0594C34.9713 48.3405 35.3524 48.4988 35.75 48.4996H50.75C51.1476 48.4988 51.5287 48.3405 51.8098 48.0594C52.0909 47.7783 52.2492 47.3972 52.25 46.9996V37.7221L53.5677 38.7496L54.5 37.5706L43.709 29.1601ZM44.75 46.9996H41.75V40.9996H44.75V46.9996ZM46.25 46.9996V40.9996C46.2496 40.6019 46.0914 40.2206 45.8102 39.9394C45.529 39.6582 45.1477 39.5 44.75 39.4996H41.75C41.3523 39.5 40.971 39.6582 40.6898 39.9394C40.4086 40.2206 40.2504 40.6019 40.25 40.9996V46.9996H35.75V36.5461L43.25 30.7036L50.75 36.5536V46.9996H46.25Z" fill="#8C94A3"/>
</svg>
