<svg width="24" height="24" viewBox="0 0 24 24" fill="none" xmlns="http://www.w3.org/2000/svg">
<path d="M6.615 16.77C6.155 16.77 5.77067 16.6157 5.462 16.307C5.154 15.9984 5 15.614 5 15.154V5.38404C5 4.92404 5.15433 4.54004 5.463 4.23204C5.77167 3.92404 6.15567 3.76971 6.615 3.76904H20.385C20.845 3.76904 21.229 3.92338 21.537 4.23204C21.8457 4.54004 22 4.92438 22 5.38504V15.154C22 15.614 21.8457 15.9984 21.537 16.307C21.229 16.615 20.845 16.769 20.385 16.769H6.615V16.77ZM13.021 11.17L6 5.94304V15.153C6 15.333 6.05767 15.4804 6.173 15.595C6.28833 15.7097 6.43567 15.7674 6.615 15.768H20.385C20.5643 15.768 20.7117 15.7104 20.827 15.595C20.9423 15.4797 21 15.3324 21 15.153V5.94304L13.979 11.168C13.8343 11.276 13.6747 11.33 13.5 11.33C13.3253 11.33 13.1657 11.276 13.021 11.168V11.17ZM13.5 10.312L20.808 4.88504C20.7693 4.84638 20.7277 4.81738 20.683 4.79804C20.6377 4.77871 20.5767 4.76904 20.5 4.76904H6.5C6.436 4.76904 6.372 4.78504 6.308 4.81704C6.244 4.84904 6.19267 4.88438 6.154 4.92304L13.5 10.312ZM3.615 19.769C3.155 19.769 2.77067 19.615 2.462 19.307C2.154 18.9984 2 18.614 2 18.154V9.15404C2 9.01138 2.04767 8.89238 2.143 8.79704C2.239 8.70171 2.358 8.65404 2.5 8.65404C2.642 8.65404 2.761 8.70171 2.857 8.79704C2.953 8.89238 3.00067 9.01138 3 9.15404V18.154C3 18.334 3.05767 18.4814 3.173 18.596C3.28833 18.7107 3.43567 18.7684 3.615 18.769H17.885C18.027 18.769 18.1457 18.817 18.241 18.913C18.3363 19.009 18.3843 19.1277 18.385 19.269C18.385 19.4117 18.337 19.5307 18.241 19.626C18.145 19.7214 18.0263 19.769 17.885 19.769H3.615ZM21 5.92704C21 5.74238 20.9777 5.55904 20.933 5.37704C20.8877 5.19504 20.846 5.03104 20.808 4.88504C20.7693 4.84638 20.7277 4.81738 20.683 4.79804C20.6377 4.77871 20.5767 4.76904 20.5 4.76904H6.5C6.436 4.76904 6.372 4.78504 6.308 4.81704C6.244 4.84904 6.19267 4.88438 6.154 4.92304C6.11533 5.06971 6.08 5.23071 6.048 5.40604C6.016 5.58138 6 5.75471 6 5.92604V4.77004H21V5.92704Z" fill="#1D2026"/>
</svg>
