<svg width="20" height="20" viewBox="0 0 20 20" fill="none" xmlns="http://www.w3.org/2000/svg">
<g clip-path="url(#clip0_1782_289)">
<path d="M19.9798 5.88005C19.933 4.81738 19.7611 4.0868 19.515 3.45374C19.261 2.78176 18.8703 2.18014 18.3584 1.68002C17.8583 1.1721 17.2527 0.777435 16.5885 0.527447C15.9518 0.281274 15.225 0.109427 14.1623 0.0625732C13.0917 0.0117516 12.7519 0 10.0365 0C7.32112 0 6.98124 0.0117516 5.91459 0.0586052C4.85192 0.105459 4.12134 0.277459 3.48843 0.523479C2.81631 0.777435 2.21469 1.16814 1.71456 1.68002C1.20665 2.18014 0.812132 2.78573 0.561992 3.44992C0.31582 4.0868 0.143973 4.81341 0.0971191 5.87609C0.0462974 6.9467 0.0345459 7.28658 0.0345459 10.002C0.0345459 12.7173 0.0462974 13.0572 0.093151 14.1239C0.140005 15.1865 0.312005 15.9171 0.558177 16.5502C0.812132 17.2221 1.20665 17.8238 1.71456 18.3239C2.21469 18.8318 2.82027 19.2265 3.48446 19.4765C4.12134 19.7226 4.84795 19.8945 5.91078 19.9413C6.97727 19.9883 7.3173 19.9999 10.0327 19.9999C12.748 19.9999 13.0879 19.9883 14.1546 19.9413C15.2172 19.8945 15.9478 19.7226 16.5807 19.4765C17.9248 18.9568 18.9875 17.8941 19.5072 16.5502C19.7532 15.9133 19.9252 15.1865 19.972 14.1239C20.0189 13.0572 20.0306 12.7173 20.0306 10.002C20.0306 7.28658 20.0267 6.9467 19.9798 5.88005ZM18.1788 14.0457C18.1357 15.0225 17.9717 15.5499 17.8349 15.9015C17.4989 16.7728 16.8074 17.4643 15.9361 17.8004C15.5844 17.9372 15.0532 18.1012 14.0802 18.1441C13.0253 18.1911 12.709 18.2027 10.0405 18.2027C7.37194 18.2027 7.05159 18.1911 6.00052 18.1441C5.02377 18.1012 4.49632 17.9372 4.14469 17.8004C3.7111 17.6402 3.31643 17.3862 2.99609 17.0541C2.66399 16.7298 2.41004 16.3391 2.24979 15.9055C2.11304 15.5539 1.94898 15.0225 1.90609 14.0497C1.85909 12.9948 1.84749 12.6783 1.84749 10.0097C1.84749 7.34122 1.85909 7.02087 1.90609 5.96995C1.94898 4.99319 2.11304 4.46575 2.24979 4.11412C2.41004 3.68038 2.66399 3.28586 3.00006 2.96536C3.32422 2.63327 3.71492 2.37931 4.14866 2.21921C4.50029 2.08247 5.0317 1.9184 6.00449 1.87537C7.05938 1.82851 7.37591 1.81676 10.0443 1.81676C12.7168 1.81676 13.0331 1.82851 14.0842 1.87537C15.061 1.9184 15.5884 2.08247 15.94 2.21921C16.3736 2.37931 16.7683 2.63327 17.0886 2.96536C17.4207 3.28967 17.6747 3.68038 17.8349 4.11412C17.9717 4.46575 18.1357 4.99701 18.1788 5.96995C18.2256 7.02484 18.2374 7.34122 18.2374 10.0097C18.2374 12.6783 18.2256 12.9908 18.1788 14.0457Z" fill="#4E5566"/>
<path d="M10.0363 4.86426C7.19988 4.86426 4.89856 7.16543 4.89856 10.002C4.89856 12.8385 7.19988 15.1397 10.0363 15.1397C12.8728 15.1397 15.174 12.8385 15.174 10.002C15.174 7.16543 12.8728 4.86426 10.0363 4.86426ZM10.0363 13.3347C8.19617 13.3347 6.70357 11.8423 6.70357 10.002C6.70357 8.16172 8.19617 6.66927 10.0363 6.66927C11.8765 6.66927 13.369 8.16172 13.369 10.002C13.369 11.8423 11.8765 13.3347 10.0363 13.3347Z" fill="#4E5566"/>
<path d="M16.5771 4.66134C16.5771 5.3237 16.04 5.86077 15.3775 5.86077C14.7152 5.86077 14.1781 5.3237 14.1781 4.66134C14.1781 3.99882 14.7152 3.46191 15.3775 3.46191C16.04 3.46191 16.5771 3.99882 16.5771 4.66134Z" fill="#4E5566"/>
</g>
<defs>
<clipPath id="clip0_1782_289">
<rect width="20" height="20" fill="white"/>
</clipPath>
</defs>
</svg>
