<svg width="26" height="16" viewBox="0 0 26 16" fill="none" xmlns="http://www.w3.org/2000/svg">
<path d="M24.7898 12.2577V4.71633L25.4219 4.49208L24.7898 4.26879L24.5411 4.18075L12.7117 0L0 4.49256L4.68172 6.14752L4.68035 6.15141L5.15576 6.31485L6.24617 6.70984L6.24662 6.70787L12.7998 8.87996L19.2899 6.6777L19.2908 6.68207L20.7314 6.16984L20.7258 6.15278L24.1947 4.92639V12.1505L23.2499 13.9393L24.46 16L25.6 13.9291L24.7898 12.2577ZM24.4577 14.7528L24.0008 13.8372L24.4372 12.8755L24.908 13.8465L24.4577 14.7528Z" fill="#8C94A3"/>
<path d="M12.7577 9.79915L6.80612 7.8255L6.49538 9.25136C6.42856 9.3686 6.39518 9.4868 6.39518 9.6065C6.39518 10.7268 11.0922 13.5255 12.5458 13.5255C14.0439 13.5255 19.2065 10.6977 19.2065 9.6065C19.2065 9.52379 19.1908 9.45083 19.1657 9.3409C19.1509 9.27716 19.1314 9.19595 19.111 9.08744L18.8031 7.77637L12.8023 9.81321L12.7577 9.79915Z" fill="#8C94A3"/>
</svg>
