<svg width="20" height="20" viewBox="0 0 20 20" fill="none" xmlns="http://www.w3.org/2000/svg">
<path fill-rule="evenodd" clip-rule="evenodd" d="M16.6322 3.34007C14.878 1.58386 12.5451 0.616264 10.0598 0.615234C4.93861 0.615234 0.770668 4.78306 0.768608 9.90566C0.767921 11.5432 1.1957 13.1417 2.0088 14.5507L0.690674 19.3652L5.6161 18.0732C6.97325 18.8135 8.50115 19.2036 10.0561 19.2041H10.06C15.1806 19.2041 19.349 15.0359 19.351 9.9131C19.352 7.43042 18.3864 5.09617 16.6322 3.34007ZM10.0598 17.635H10.0566C8.67098 17.6344 7.312 17.262 6.12616 16.5586L5.84429 16.3911L2.92147 17.1579L3.70161 14.3082L3.51794 14.016C2.74489 12.7865 2.33668 11.3654 2.33736 9.90623C2.33897 5.64846 5.80332 2.18445 10.0629 2.18445C12.1256 2.18513 14.0646 2.98943 15.5226 4.44912C16.9805 5.90881 17.783 7.84904 17.7823 9.91253C17.7805 14.1706 14.3164 17.635 10.0598 17.635ZM14.2958 11.8513C14.0637 11.735 12.9222 11.1736 12.7094 11.096C12.4967 11.0185 12.3418 10.9799 12.1872 11.2122C12.0323 11.4445 11.5875 11.9675 11.452 12.1224C11.3165 12.2773 11.1812 12.2968 10.949 12.1805C10.7168 12.0644 9.96886 11.8191 9.08205 11.0282C8.39197 10.4126 7.92609 9.6524 7.79059 9.42009C7.65532 9.18754 7.78944 9.07402 7.89244 8.9463C8.14375 8.63422 8.39541 8.30704 8.47277 8.1522C8.55025 7.99724 8.51145 7.86163 8.45331 7.74547C8.39541 7.62932 7.93112 6.48662 7.73772 6.02165C7.54912 5.56915 7.35789 5.63026 7.21529 5.62317C7.08002 5.61642 6.92519 5.61504 6.77035 5.61504C6.61562 5.61504 6.36408 5.67306 6.15122 5.90561C5.93848 6.13804 5.33881 6.6996 5.33881 7.84229C5.33881 8.98498 6.17068 10.0889 6.28672 10.2438C6.40276 10.3988 7.9238 12.7437 10.2526 13.7492C10.8064 13.9886 11.2388 14.1313 11.5761 14.2383C12.1322 14.415 12.6382 14.39 13.0383 14.3303C13.4844 14.2636 14.4117 13.7686 14.6053 13.2264C14.7987 12.6841 14.7987 12.2193 14.7406 12.1224C14.6827 12.0256 14.5278 11.9675 14.2958 11.8513Z" fill="#4E5566"/>
</svg>
